<svg xmlns:dc="http://purl.org/dc/elements/1.1/" xmlns:cc="http://creativecommons.org/ns#" xmlns:rdf="http://www.w3.org/1999/02/22-rdf-syntax-ns#" xmlns:svg="http://www.w3.org/2000/svg" xmlns="http://www.w3.org/2000/svg" version="1.1" x="0px" y="0px" viewBox="0 0 100 100"><g transform="translate(0,-952.36218)"><path style="font-size:medium;font-style:normal;font-variant:normal;font-weight:normal;font-stretch:normal;text-indent:0;text-align:start;text-decoration:none;line-height:normal;letter-spacing:normal;word-spacing:normal;text-transform:none;direction:ltr;block-progression:tb;writing-mode:lr-tb;text-anchor:start;baseline-shift:baseline;opacity:1;color:#000000;fill:#000000;fill-opacity:1;stroke:none;strokeWidth:4;marker:none;visibility:visible;display:inline;overflow:visible;enable-background:accumulate;font-family:Sans;-inkscape-font-specification:Sans" d="M 50 14 C 30.141439 14 14 30.14141 14 50 C 14 69.8586 30.14144 86 50 86 C 69.85856 86 86 69.8586 86 50 C 86 30.14141 69.858561 14 50 14 z M 50 18 C 67.696801 18 82 32.30317 82 50 C 82 67.6968 67.696802 82 50 82 C 32.303198 82 18 67.6968 18 50 C 18 32.30317 32.303199 18 50 18 z M 49.96875 31 C 44.934795 31.052 40.364647 34.30578 38.1875 39.15625 A 2.0002 2.0002 0 1 0 41.8125 40.8125 C 43.396629 37.28322 46.718793 35.04748 50 35 C 50.01156 35.00008 50.01971 34.99989 50.03125 35 C 52.934314 35.0277 55.161192 35.88917 56.65625 37.25 C 58.157252 38.61624 59 40.50457 59 43 C 59 44.29765 58.568044 45.30657 57.71875 46.4375 C 56.869456 47.56843 55.584386 48.7214 54.21875 49.9375 C 51.487479 52.3697 48.096167 55.2857 48 59.9375 A 2.0005522 2.0005522 0 1 0 52 60.03125 C 52.05567 57.33835 54.144231 55.3692 56.875 52.9375 C 58.240385 51.7216 59.716769 50.42765 60.90625 48.84375 C 62.095731 47.25947 63 45.30216 63 43 C 63 39.52904 61.684076 36.41146 59.34375 34.28125 C 57.003424 32.15104 53.714655 31.02676 50 31 A 2.0002 2.0002 0 0 0 49.96875 31 z M 49 65 C 48.446 65 48 65.446 48 66 L 48 68 C 48 68.554 48.446 69 49 69 L 51 69 C 51.554 69 52 68.554 52 68 L 52 66 C 52 65.446 51.554 65 51 65 L 49 65 z " transform="translate(0,952.36218)"/></g></svg>